<?xml version="1.0" encoding="utf-8"?>
<!-- Generator: Adobe Illustrator 13.0.2, SVG Export Plug-In . SVG Version: 6.00 Build 14948)  -->
<!DOCTYPE svg PUBLIC "-//W3C//DTD SVG 1.0//EN" "http://www.w3.org/TR/2001/REC-SVG-20010904/DTD/svg10.dtd">
<svg version="1.0" id="Layer_1" xmlns:svg="http://www.w3.org/2000/svg"
	 xmlns="http://www.w3.org/2000/svg" xmlns:xlink="http://www.w3.org/1999/xlink" x="0px" y="0px" width="512.739px"
	 height="631.43px" viewBox="0 0 512.739 631.43" enable-background="new 0 0 512.739 631.43" xml:space="preserve">
<path id="path236" fill="#6D6D6D" stroke="#020202" stroke-width="2" d="M244.606,516.033c0,49.32,26.814,92.364,66.635,115.396
	V400.653C271.422,423.687,244.606,466.713,244.606,516.033 M118.381,417.119c-27.199,37.438-30.577,84.875-13.057,124.324
	l127.273-175.161c-4.329-0.447-8.656-0.686-12.984-0.686C180.961,365.598,142.843,383.454,118.381,417.119 M285.79,356.572
	c0,18.829,10.246,35.284,25.451,44.081v-88.161C296.036,321.308,285.79,337.742,285.79,356.572 M237.579,318.784
	c-10.398,14.295-11.691,32.421-4.982,47.481l48.601-66.889c-1.652-0.174-3.308-0.256-4.951-0.256
	C261.472,299.122,246.915,305.925,237.579,318.784 M424.887,330.379c23.729,7.684,48.598,1.532,65.893-14.023l-110.955-36.048
	C384.688,303.052,401.186,322.665,424.887,330.379 M78.15,272.365C37.039,285.708,8.425,319.725,0,359.145l192.354-62.499
	c-21.241-19.087-49.089-30.028-78.133-30.028C102.276,266.615,90.12,268.47,78.15,272.365 M222.2,263.5
	c-15.693,5.097-26.618,18.084-29.837,33.145l73.47-23.879c-8.121-7.284-18.75-11.454-29.851-11.454
	C231.413,261.312,226.782,262.001,222.2,263.5 M200.741,222.101l68.294,22.201c-2.979-13.989-13.146-26.065-27.742-30.809
	c-4.235-1.389-8.563-2.043-12.811-2.043C218.182,211.45,208.296,215.331,200.741,222.101 M388.209,233.01
	c19.422,17.442,47.324,24.357,73.941,15.717c26.623-8.641,45.145-30.648,50.588-56.188L388.209,233.01z M311.241,220.361
	c10.518-6.068,17.584-17.426,17.584-30.441c0-13.033-7.066-24.388-17.584-30.459V220.361z M21.952,164.029l178.789,58.072
	c-7.826-36.621-34.411-68.23-72.616-80.656c-11.139-3.609-22.431-5.336-33.541-5.336C67.583,136.109,41.71,146.269,21.952,164.029
	 M363.995,185.417c28.789,2.984,58.338-8.977,76.586-34.103c18.229-25.105,20.508-56.906,8.76-83.372l-85.354,117.475H363.995
	 M146.021,30.617l102.107,140.536l39.011,53.68c5.357-12.09,4.336-26.626-4.01-38.091c-7.498-10.333-19.172-15.798-31.024-15.798
	c-1.333,0-2.643,0.081-3.977,0.209c14.048-31.657,11.348-69.718-10.47-99.744c-19.629-27.025-50.213-41.337-81.216-41.337
	C152.961,30.073,149.487,30.251,146.021,30.617 M311.241,159.459c27.514-15.923,46.029-45.661,46.029-79.729
	c0-34.084-18.518-63.821-46.029-79.729V159.459z"/>
</svg>
